<svg xmlns="http://www.w3.org/2000/svg" width="1584" height="672"><defs><marker id="arrow" markerWidth="12" markerHeight="12" refX="10" refY="6" orient="auto" markerUnits="strokeWidth"><path d="m2 2 8 4-8 4Z" fill="#16B8C7"/></marker><style>.font{font-family:&quot;PingFang SC&quot;,&quot;Noto Sans CJK SC&quot;,&quot;Helvetica Neue&quot;,Arial,sans-serif}.outline,.route,.thin{stroke:#0e2233;stroke-width:4;stroke-linecap:round;stroke-linejoin:round}.route,.thin{stroke:#9fb4c2;stroke-width:2}.route{stroke:#16b8c7;stroke-width:4;fill:none;marker-end:url(#arrow)}.dash{stroke-dasharray:8 12}.label{fill:#0e2233;font-size:28px;font-weight:700;letter-spacing:0}</style></defs><path fill="#F3F8FA" d="M0 0h1584v672H0z"/><g opacity=".58"><path d="M0 94h1584M0 208h1584M0 322h1584M0 436h1584M0 550h1584M96 0v672M278 0v672M460 0v672M642 0v672M824 0v672M1006 0v672M1188 0v672M1370 0v672" class="thin"/><path d="M36 36h1512v600H36Z" fill="none" stroke="#9FB4C2" stroke-width="2"/><path d="M36 208h176V36m1336 428h-176v172" fill="none" stroke="#9FB4C2" stroke-width="2"/></g><g opacity=".52"><path d="M68 90h78m-78 22h52m-52 22h92M1252 58h36m12 0h12m12 0h96m12 0h48" class="thin"/><circle cx="1324" cy="58" r="4" fill="#16B8C7"/><circle cx="1428" cy="58" r="4" fill="#2F6FEB"/><path d="M1214 622h80m14 0h46m14 0h102" class="thin"/></g><g transform="translate(544 230)"><path d="M46 0h240c26 0 48 22 48 48v120c0 26-22 48-48 48H46c-26 0-48-22-48-48V48C-2 22 20 0 46 0Z" fill="#FFF" class="outline"/><path d="M46 0h240c26 0 48 22 48 48v28H-2V48C-2 22 20 0 46 0Z" fill="#DDEBFF" class="outline"/><path d="M-32 68h30v80h-30c-22 0-40-18-40-40s18-40 40-40Z" fill="#2F6FEB" class="outline"/><path d="M334 68h30c22 0 40 18 40 40s-18 40-40 40h-30Z" fill="#16B8C7" class="outline"/><text x="166" y="56" text-anchor="middle" class="font" fill="#0E2233" font-size="30" font-weight="800" letter-spacing="0">PLUGIN</text><rect x="44" y="104" width="72" height="52" rx="10" fill="#2F6FEB" class="outline"/><rect x="132" y="104" width="72" height="52" rx="10" fill="#16B8C7" class="outline"/><rect x="220" y="104" width="72" height="52" rx="10" fill="#F5A524" class="outline"/><path d="M64 130h32m56 0h32m56 0h32" stroke="#FFF" stroke-width="7" stroke-linecap="round"/><circle cx="80" cy="181" r="8" fill="#16B8C7"/><circle cx="124" cy="181" r="8" fill="#2F6FEB"/><circle cx="168" cy="181" r="8" fill="#F5A524"/><circle cx="212" cy="181" r="8" fill="#16B8C7"/><circle cx="256" cy="181" r="8" fill="#2F6FEB"/></g><g fill="none"><path d="M470 158c50 20 76 62 102 108" class="route dash"/><path d="M662 134c0 38 6 64 18 96" class="route dash"/><path d="M936 194c-56 24-76 40-108 74" class="route dash"/><path d="M464 486c44-36 76-68 108-108" class="route dash"/><path d="M678 540c4-46 6-78 8-94" class="route dash"/><path d="M960 476c-52-40-92-72-132-100" class="route dash"/><path d="M884 334c76-4 134-30 192-68" class="route"/><path d="M884 350c88 26 146 74 200 136" class="route"/></g><g class="font"><g transform="translate(368 96)"><rect width="154" height="98" rx="14" fill="#FFF" class="outline"/><path d="M34 34h86M34 52h62M34 70h72" stroke="#2F6FEB" stroke-width="6" stroke-linecap="round"/><text x="77" y="130" text-anchor="middle" class="label">Rule</text></g><g transform="translate(590 70)"><rect width="180" height="104" rx="14" fill="#FFF" class="outline"/><path d="M40 36h92M40 56h108M40 76h64" stroke="#16B8C7" stroke-width="6" stroke-linecap="round"/><path d="m134 30 20 20-20 20" fill="none" stroke="#F5A524" stroke-width="6" stroke-linecap="round" stroke-linejoin="round"/><text x="90" y="136" text-anchor="middle" class="label">Command</text></g><g transform="translate(858 112)"><path d="M0 24C0 11 11 0 24 0h122c13 0 24 11 24 24v20h-28c-13 0-24 11-24 24s11 24 24 24h28v34c0 13-11 24-24 24H24c-13 0-24-11-24-24V94h24c13 0 24-11 24-24S37 46 24 46H0Z" fill="#2F6FEB" class="outline"/><circle cx="86" cy="76" r="19" fill="#FFF"/><path d="M86 46v60M56 76h60" stroke="#16B8C7" stroke-width="9" stroke-linecap="round"/><text x="85" y="182" text-anchor="middle" class="label">Skill</text></g><g transform="translate(372 430)"><rect width="166" height="104" rx="14" fill="#FFF" class="outline"/><path d="M92 24 54 70h30l-12 34 42-50H82Z" fill="#F5A524" class="outline"/><text x="83" y="136" text-anchor="middle" class="label">Hook</text></g><g transform="translate(602 456)"><rect width="190" height="106" rx="14" fill="#FFF" class="outline"/><rect x="64" y="28" width="62" height="44" rx="18" fill="#DDEBFF" class="outline"/><circle cx="78" cy="52" r="5" fill="#0E2233"/><circle cx="112" cy="52" r="5" fill="#0E2233"/><path d="M88 70h28" stroke="#16B8C7" stroke-width="5" stroke-linecap="round"/><path d="M54 78h82M94 18V0" stroke="#0E2233" stroke-width="5" stroke-linecap="round"/><text x="95" y="138" text-anchor="middle" class="label">Subagent</text></g><g transform="translate(912 410)"><rect width="164" height="106" rx="14" fill="#FFF" class="outline"/><rect x="34" y="38" width="84" height="38" rx="16" fill="#DDEBFF" class="outline"/><rect x="118" y="48" width="28" height="18" rx="4" fill="#16B8C7" class="outline"/><path d="M56 57h52M70 38v38m24-38v38" stroke="#2F6FEB" stroke-width="5" stroke-linecap="round"/><text x="82" y="138" text-anchor="middle" class="label">MCP</text></g></g><g class="font"><g transform="translate(1084 198)"><rect width="158" height="118" rx="14" fill="#EAF3FF" class="outline"/><circle cx="56" cy="52" r="16" fill="#2F6FEB" class="outline"/><circle cx="96" cy="52" r="16" fill="#16B8C7" class="outline"/><path d="M40 82h72" stroke="#0E2233" stroke-width="6" stroke-linecap="round"/><text x="79" y="150" text-anchor="middle" class="label">团队分发</text></g><g transform="translate(1096 430)"><rect width="158" height="118" rx="14" fill="#FFF7E6" class="outline"/><path d="M42 82h74V48c0-17-14-30-31-30H73c-17 0-31 13-31 30Z" fill="#F5A524" class="outline"/><path d="M58 48c0-10 8-18 18-18h6c10 0 18 8 18 18" fill="none" stroke="#FFF" stroke-width="7" stroke-linecap="round"/><text x="79" y="150" text-anchor="middle" class="label">市场发布</text></g></g><g opacity=".85"><circle cx="540" cy="150" r="5" fill="#16B8C7"/><circle cx="552" cy="182" r="5" fill="#F5A524"/><circle cx="1452" cy="118" r="6" fill="#2F6FEB"/><circle cx="1494" cy="118" r="6" fill="#0E2233"/><circle cx="1518" cy="118" r="6" fill="#9FB4C2"/><path d="M494 138h54m-28-26v54M1234 120h46m-23-23v46M508 590h68m-34-34v68" class="thin"/></g></svg>