<svg xmlns="http://www.w3.org/2000/svg" width="34" height="32" fill="none"><path fill="#EB1000" d="M27.31 0H5.875A5.875 5.875 0 000 5.875v20.25A5.875 5.875 0 005.875 32H27.31a5.875 5.875 0 005.875-5.875V5.875A5.875 5.875 0 0027.31 0z"/><path fill="#fff" d="M18.165 21.451a.248.248 0 11-.496 0 .248.248 0 01.496 0zm-.496.595a.33.33 0 00-.192.067.307.307 0 00.02-.1.314.314 0 10-.314.314.305.305 0 00.172-.058.334.334 0 00-.023.114.338.338 0 10.337-.337zm-.586.75a.384.384 0 00-.382-.365c-.037 0-.069.011-.102.02a.362.362 0 00-.267-.61.365.365 0 000 .73c.031 0 .06-.01.089-.018a.384.384 0 00-.107.264c0 .176.12.319.28.366l-.002.014a.417.417 0 00.834 0 .411.411 0 00-.343-.402zm-.965.375a.421.421 0 00.03-.151.423.423 0 00-.386-.419.392.392 0 00.09-.242.394.394 0 00-.315-.383.365.365 0 00.137-.28.367.367 0 00-.2-.325.341.341 0 00-.015-.682.342.342 0 00-.342.342.34.34 0 00.178.295.366.366 0 00-.082.722.392.392 0 00-.159.31c0 .202.152.362.346.39a.42.42 0 00-.105.272.42.42 0 00.339.409.47.47 0 00-.054.21.479.479 0 00.958 0 .474.474 0 00-.42-.468zm-4.901-2.941c0 .17-.098.313-.236.39.025-.004.048-.015.075-.015.25 0 .454.204.454.455 0 .072-.02.138-.05.2a.446.446 0 01.292-.115c.247 0 .445.198.451.443a.443.443 0 01.41-.336.388.388 0 01-.073-.216.4.4 0 11.798 0 .395.395 0 01-.356.39c.06.077.1.169.1.273a.446.446 0 01-.121.304c.082.079.13.187.143.306a.46.46 0 01.145-.29.42.42 0 01-.153-.321c0-.223.173-.4.39-.42a.38.38 0 01-.092-.244c0-.14.078-.258.19-.326a.343.343 0 01-.293-.336.347.347 0 01.695 0 .342.342 0 01-.16.285c.19.024.34.18.34.377a.381.381 0 01-.331.375c.07.077.116.177.116.289a.424.424 0 01-.12.292.458.458 0 01.198.371c0 .085-.029.16-.068.229a.5.5 0 01.262.435.492.492 0 01-.03.153c.052.025.1.057.142.096a.454.454 0 01-.083-.25c0-.1.038-.188.091-.264a.427.427 0 01-.123-.721.395.395 0 01-.205-.343c0-.208.161-.374.366-.392a.36.36 0 01.092-.605c-.02.004-.037.012-.057.012a.34.34 0 11.137-.03c.022-.004.042-.013.065-.013.201 0 .364.163.364.365a.36.36 0 01-.323.356.393.393 0 01.038.587.43.43 0 01.241.384c0 .085-.03.16-.073.227.185.062.32.231.32.437a.46.46 0 01-.033.161.526.526 0 01-.145 1.035.525.525 0 01-.51-.42.56.56 0 01-.546.458.566.566 0 01-.506-.32.605.605 0 01-.55.358.599.599 0 01-.518-.31.615.615 0 01-.538.327.614.614 0 01-.526-.31.616.616 0 01-.53.313.622.622 0 01-.58-.406.627.627 0 01-1.069-.445c0-.027.012-.05.015-.076a.608.608 0 01-.203.041.622.622 0 01-.622-.622c0-.135.052-.253.125-.355a.6.6 0 01-.552-.594c0-.24.143-.444.346-.542a.58.58 0 01-.305-.505c0-.317.252-.571.567-.583a.57.57 0 01.407-.97c.009 0 .017.005.026.006a.557.557 0 01-.18-.409c0-.31.251-.562.562-.562.023 0 .042.01.064.013a.546.546 0 01-.21-.425c0-.306.248-.554.555-.554.036 0 .068.014.102.02a.537.537 0 01-.24-.44c0-.301.245-.546.546-.546.05 0 .095.016.14.029a.53.53 0 01.447-.959.526.526 0 11.62-.823.49.49 0 01.199-.043c.158 0 .292.079.382.195a.443.443 0 01.204-.054c.161 0 .296.089.376.216a.4.4 0 01.203-.061c.192 0 .346.134.392.31a.372.372 0 01.132-.026.371.371 0 01.25.65.329.329 0 01.129-.026.331.331 0 01.236.562.29.29 0 01.195-.077.295.295 0 11-.21.089.327.327 0 01-.221.088.331.331 0 01-.233-.565.37.37 0 01-.495-.22.406.406 0 01-.175.041.405.405 0 01-.323-.167.44.44 0 01-.256.09.448.448 0 01-.328-.145.477.477 0 01-.258.083.486.486 0 01-.332-.133.515.515 0 01-.256.075.526.526 0 01-.174-.035.54.54 0 01.138.093.489.489 0 01.234-.066c.147 0 .276.066.367.167a.444.444 0 01.239-.077.45.45 0 01.36.189.407.407 0 01.24-.085c.179 0 .328.113.388.271a.374.374 0 01.532.343.369.369 0 01-.068.205c.03-.009.06-.019.092-.019.185 0 .335.15.335.336a.33.33 0 01-.038.147.291.291 0 01.152-.047.3.3 0 11-.272.177.323.323 0 01-.177.059.336.336 0 01-.336-.336c0-.062.021-.117.051-.167a.375.375 0 01-.116.023.376.376 0 01-.34-.217.409.409 0 01-.203.06.413.413 0 01-.305-.138.45.45 0 01-.295.115.453.453 0 01-.303-.121.488.488 0 01-.303.112.494.494 0 01-.19-.038.511.511 0 01.149.1.453.453 0 01.278-.102c.138 0 .26.064.344.16a.417.417 0 01.276-.108c.168 0 .31.1.378.242a.37.37 0 01.183-.053c.21 0 .38.17.38.38a.379.379 0 01-.027.137c.024-.005.045-.014.07-.014a.34.34 0 01.34.34c0 .033-.01.063-.018.092a.292.292 0 01.146-.043.301.301 0 11-.301.301c0-.024.008-.046.014-.069a.332.332 0 01-.18.06.34.34 0 01-.341-.34c0-.037.01-.07.02-.103-.033.01-.066.02-.103.02a.375.375 0 01-.322-.19.41.41 0 01-.239.083.418.418 0 01-.286-.115.455.455 0 01-.143.103c.026-.006.051-.017.08-.017.157 0 .29.09.363.217a.375.375 0 01.216-.075c.212 0 .384.172.384.384 0 .027-.01.051-.015.077.025-.006.05-.016.077-.016.189 0 .342.154.342.343 0 .017-.007.031-.01.047a.293.293 0 01.153-.047.3.3 0 11-.3.3c0-.008.003-.014.004-.023a.333.333 0 01-.189.065.342.342 0 01-.342-.342c0-.016.006-.028.008-.043-.036.011-.072.023-.112.023a.376.376 0 01-.305-.164.42.42 0 01-.274.107.42.42 0 01-.273-.106c-.018.024-.035.048-.058.069a.424.424 0 01.33.185.385.385 0 01.25-.097.39.39 0 01.39.392c0 .006-.002.011-.003.017.027-.006.052-.016.08-.016a.344.344 0 010 .688.341.341 0 01-.339-.324.389.389 0 01-.128.026.386.386 0 01-.291-.135.433.433 0 01-.307.128c-.1 0-.188-.04-.261-.097a.507.507 0 01-.033.05.433.433 0 01.285.157.396.396 0 01.682.279.398.398 0 01-.685.274.436.436 0 01-.337.165m.06 2.676c.093.063.17.145.212.25a.531.531 0 01.044-.065.5.5 0 01-.116-.298.494.494 0 01-.14.113zm1.07.128a.56.56 0 01.128.178c.012-.027.032-.048.048-.072a.494.494 0 01-.126-.21.495.495 0 01-.05.104zm1.012-.204a.49.49 0 01-.06.189c.095.075.16.177.19.299a.486.486 0 01.072-.16.456.456 0 01-.202-.328zm-1.117-.439a.49.49 0 01.155.233.488.488 0 01.148-.222.442.442 0 01-.108-.277.442.442 0 01-.195.266zm-.932-.46a.448.448 0 01-.387-.23c.002.019.011.035.011.055a.499.499 0 01-.066.237.5.5 0 01.165-.033c.275 0 .496.218.506.491a.494.494 0 01.146-.118.443.443 0 01-.082-.517.448.448 0 01-.293.115zm-.293-.831a.448.448 0 01-.295-.116.49.49 0 01-.223.277.499.499 0 01.362.248c0-.012-.006-.022-.006-.033a.45.45 0 01.236-.391c-.025.004-.048.015-.074.015zm.627-3.318a.452.452 0 01-.274-.099c-.02.019-.045.03-.067.045a.466.466 0 01.302.131.421.421 0 01.133-.096c-.031.007-.06.02-.094.02zm-.434-.927c-.04-.018-.073-.045-.107-.072-.019.013-.036.028-.057.039a.503.503 0 01.164.033zm.408-1.93a.514.514 0 00.214-.049.48.48 0 00.354.158.475.475 0 00.221-.06.439.439 0 00.345.174.428.428 0 00.218-.065.402.402 0 00.341.197.403.403 0 00.15-.03c.04.164.18.289.356.289a.369.369 0 00.365-.336.32.32 0 00.3.213.322.322 0 100-.643.319.319 0 00-.315.285.367.367 0 00-.35-.263c-.039 0-.073.011-.108.022a.404.404 0 00-.398-.354.403.403 0 00-.167.038.443.443 0 00-.392-.245.44.44 0 00-.167.034.477.477 0 00-.399-.225.479.479 0 00-.157.031.512.512 0 00-.411-.215.522.522 0 100 1.044zm.408-.982a.51.51 0 00.174-.035.47.47 0 00.56.158c.078.12.207.205.361.205a.436.436 0 00.18-.04c.067.132.2.226.36.226a.396.396 0 00.125-.025c.018.186.17.334.362.334a.365.365 0 00.345-.255.324.324 0 10-.003-.246.367.367 0 00-.343-.237c-.03 0-.056.01-.084.017a.403.403 0 00-.403-.397.394.394 0 00-.13.027.438.438 0 00-.409-.286c-.043 0-.082.013-.122.025a.474.474 0 00-.423-.267c-.041 0-.078.014-.116.024a.506.506 0 00-.947.258c0 .284.23.514.513.514zm.41-.982c.045 0 .087-.015.13-.026.08.139.226.237.4.237.048 0 .092-.014.136-.028.07.146.216.249.39.249a.428.428 0 00.144-.03c.054.157.198.27.373.27.038 0 .072-.011.106-.02 0 .004-.003.008-.003.013a.362.362 0 00.685.169.325.325 0 10.3-.45c-.12 0-.22.07-.276.166a.362.362 0 00-.343-.25c-.027 0-.052.01-.077.015.001-.014.008-.027.008-.042a.4.4 0 00-.4-.4c-.037 0-.07.011-.104.02a.43.43 0 00-.414-.331c-.03 0-.058.01-.087.017a.468.468 0 00-.439-.31c-.026 0-.049.01-.073.015a.503.503 0 00-.962.21c0 .28.226.506.505.506zm.408-.982c.03 0 .057-.012.086-.018.071.165.234.28.425.28.036 0 .07-.013.103-.021.058.17.213.295.403.295.041 0 .08-.013.117-.024a.39.39 0 00.38.32c.036 0 .068-.012.101-.021-.004.022-.013.043-.013.066 0 .2.162.363.363.363a.356.356 0 00.29-.157.324.324 0 00.634-.102.321.321 0 00-.58-.198.358.358 0 00-.344-.269c-.026 0-.05.01-.074.015.008-.03.02-.06.02-.094a.395.395 0 00-.397-.395c-.027 0-.052.01-.078.016a.425.425 0 00-.42-.379c-.022 0-.041.01-.063.013a.457.457 0 00-.442-.356c-.017 0-.03.008-.046.01a.493.493 0 00-.962.159c0 .274.222.497.497.497zm.409-.982c.021 0 .04-.01.06-.013a.452.452 0 00.431.326c.028 0 .052-.011.079-.016a.418.418 0 00.407.343c.032 0 .06-.012.09-.018a.389.389 0 00.388.367c.034 0 .064-.01.095-.02a.356.356 0 00-.023.12.357.357 0 00.68.158c-.003.013-.009.026-.009.04a.328.328 0 10.329-.328.326.326 0 00-.291.182c.003-.018.01-.034.01-.053a.36.36 0 00-.36-.36c-.024 0-.046.01-.07.015a.388.388 0 00-.361-.536c-.02 0-.036.008-.055.01v-.001a.423.423 0 00-.423-.423c-.014 0-.026.006-.04.007a.452.452 0 00-.446-.401c-.008 0-.015.004-.024.005a.482.482 0 00-.956.107c0 .27.219.489.489.489zm.416-.98c.019 0 .035-.008.054-.01a.446.446 0 00.439.387c.029 0 .054-.012.081-.017.003.23.19.417.42.417.048 0 .09-.012.133-.027-.005.025-.015.048-.015.074 0 .217.176.393.393.393a.38.38 0 00.177-.048.358.358 0 00-.085.226.364.364 0 10.364-.365.355.355 0 00-.157.04.385.385 0 00.093-.246.393.393 0 00-.392-.393c-.039 0-.073.012-.108.022.008-.032.02-.063.02-.098a.422.422 0 00-.422-.422c-.02 0-.036.009-.054.012 0-.008.004-.013.004-.02a.452.452 0 00-.452-.452c-.008 0-.014.003-.021.004a.477.477 0 00-.953.043c0 .266.215.48.48.48zm.6-.872c.032 0 .06-.012.091-.019-.002.016-.01.03-.01.045 0 .248.202.45.45.45a.448.448 0 00.138-.028c-.012.039-.025.078-.025.12 0 .235.19.426.425.426a.416.416 0 00.25-.09.396.396 0 00-.105.264.402.402 0 10.403-.402.393.393 0 00-.234.083.42.42 0 00-.314-.705c-.042 0-.08.013-.117.024a.438.438 0 00.028-.142.45.45 0 00-.449-.45c-.025 0-.047.011-.071.015.003-.022.013-.041.013-.064a.473.473 0 10-.473.473zm.82-.67a.46.46 0 00.15-.03.44.44 0 00-.044.186.446.446 0 10.446-.446.445.445 0 00-.139.028.454.454 0 00.05-.202.464.464 0 10-.464.465zm.97-.413a.456.456 0 100-.912.456.456 0 000 .912zm1.047-.124a.448.448 0 100-.897.448.448 0 000 .897zm1.036.174a.44.44 0 100-.88.44.44 0 000 .88zm1.317.86c-.042-.012-.083-.025-.13-.025a.436.436 0 00-.4.606c-.031-.007-.06-.02-.094-.02a.437.437 0 00-.436.438c0 .09.034.17.082.24-.028-.005-.054-.016-.084-.016a.431.431 0 00-.43.431.43.43 0 00.108.28c-.037-.012-.074-.024-.114-.024a.413.413 0 10.412.413.407.407 0 00-.101-.263c.04.012.08.025.125.025a.431.431 0 00.431-.431.421.421 0 00-.08-.237c.03.006.057.018.087.018a.436.436 0 00.437-.436.435.435 0 00-.035-.171c.031.007.06.018.093.018.24 0 .436-.195.436-.435a.426.426 0 00-.027-.13c.039.01.077.023.12.023a.423.423 0 10-.424-.423c0 .042.012.081.024.12zm4.3 9.535a.337.337 0 10.674 0 .337.337 0 00-.673 0zm.424.973a.324.324 0 10.648 0 .324.324 0 00-.648 0zm.424.972a.311.311 0 10.622 0 .311.311 0 00-.622 0zm.403.981a.299.299 0 10.597 0 .299.299 0 00-.597 0zm.331.761a.286.286 0 100 .572.286.286 0 000-.572zm-.435.965a.273.273 0 100 .547.273.273 0 000-.547zm-.738.745a.26.26 0 100 .52.26.26 0 000-.52zm-.832.217a.304.304 0 100 .608.304.304 0 000-.608zM15.91 7.955a.444.444 0 10.888 0 .444.444 0 00-.888 0zm1.002.047a.441.441 0 10.882 0 .441.441 0 00-.882 0zm1.378-.09a.432.432 0 00-.326.725.433.433 0 10.263.399.427.427 0 00-.11-.284.439.439 0 00.612-.402c0-.09-.035-.17-.081-.24a.424.424 0 00.615-.387.432.432 0 10-.864 0 .42.42 0 00.079.235.43.43 0 00-.188-.047zm5.235 10.783a.335.335 0 100 .67.335.335 0 000-.67zm.71 1.26a.32.32 0 10-.641 0 .32.32 0 00.64 0zm.374.924a.306.306 0 10-.613 0 .306.306 0 00.613 0zm-.064 1.26a.292.292 0 100-.584.292.292 0 000 .584zm-8.178-13.24a.428.428 0 10-.855.001.428.428 0 00.855 0zm.511-.52a.43.43 0 100 .86.43.43 0 000-.86zm5.975 11.533a.329.329 0 10.658 0 .329.329 0 00-.658 0zm.382.874a.313.313 0 10.626 0 .313.313 0 00-.626 0zm.947.884a.297.297 0 10-.594 0 .297.297 0 00.594 0zm-.016.681a.281.281 0 100 .563.281.281 0 000-.563zm-7.177-.613a.303.303 0 100-.606.303.303 0 000 .606zm-.763.082a.343.343 0 100-.686.343.343 0 000 .686zm.261-11.736a.412.412 0 100-.825.412.412 0 000 .825zm1.303-.303a.422.422 0 10-.844 0 .422.422 0 00.844 0zm4.688 9.815a.337.337 0 100 .674.337.337 0 000-.674zm.022 1.158a.32.32 0 10.64 0 .32.32 0 00-.64 0zm.965.823a.302.302 0 10-.605 0 .302.302 0 00.605 0zm.122 1.122a.285.285 0 100-.57.285.285 0 000 .57zm.334.52a.268.268 0 10-.535 0 .268.268 0 00.535 0zm-7.095-2.432a.32.32 0 10-.64 0 .32.32 0 00.64 0zm-4.69.453a.401.401 0 100-.802.401.401 0 000 .802zm-.12-1.042a.403.403 0 10-.805 0 .403.403 0 00.806 0zm3.708-9.597a.381.381 0 10.762 0 .381.381 0 00-.762 0zm.817-.043a.397.397 0 10.794 0 .397.397 0 00-.794 0zm5.253 10.23a.326.326 0 10.653-.001.326.326 0 00-.653 0zm.954.773a.307.307 0 10-.614 0 .307.307 0 00.614 0zm.203.457a.288.288 0 100 .577.288.288 0 000-.577zm.09.73a.27.27 0 100 .538.27.27 0 000-.539zM17.6 20.951a.268.268 0 10-.536 0 .268.268 0 00.536 0zm-.897-.634a.286.286 0 10.572 0 .286.286 0 00-.572 0zm-.736.367a.305.305 0 100-.61.305.305 0 000 .61zm-.776.005a.323.323 0 100-.645.323.323 0 000 .645zm-2.313-.078a.346.346 0 100-.693.346.346 0 000 .693zm-.164-.908a.345.345 0 10-.69 0 .345.345 0 00.69 0zm1.531-4.314a.326.326 0 10-.652 0 .326.326 0 00.652 0zm1.926-3.585a.348.348 0 100-.697.348.348 0 000 .697zm.767-.736a.37.37 0 100 .74.37.37 0 000-.74zm4.595 9.69a.33.33 0 100 .661.33.33 0 000-.661zm.295 1.358a.31.31 0 100-.62.31.31 0 000 .62zm.766.355a.29.29 0 10-.58 0 .29.29 0 00.58 0zm-.153.544a.27.27 0 100 .54.27.27 0 000-.54zm-5.893-3.442a.278.278 0 100 .557.278.278 0 000-.557zM15.84 20a.288.288 0 100-.576.288.288 0 000 .576zm-.726.002a.298.298 0 100-.596.298.298 0 000 .596zm-.724.005a.3.3 0 100-.601.3.3 0 000 .6zm-.722-.02a.3.3 0 100-.601.3.3 0 000 .601zm-.233-.752a.3.3 0 10-.601 0 .3.3 0 00.601 0zm.898-3.058a.291.291 0 100-.582.291.291 0 000 .582zm.003-.953a.287.287 0 10.575 0 .287.287 0 00-.575 0zm.291-.662a.287.287 0 10.573 0 .287.287 0 00-.573 0zm.287-.663a.29.29 0 10.58 0 .29.29 0 00-.58 0zm.287-.662a.294.294 0 10.588 0 .294.294 0 00-.588 0zm.325-.643a.298.298 0 10.596 0 .298.298 0 00-.596 0zm1.235-.33a.31.31 0 10-.621 0 .31.31 0 00.621 0zm.713.185a.34.34 0 10-.68 0 .34.34 0 00.68 0zm4.07 10.478a.292.292 0 10.583 0 .292.292 0 00-.583 0zm-3.736-1.993a.24.24 0 100-.48.24.24 0 000 .48zm-.284-1.082a.233.233 0 100 .466.233.233 0 000-.466zm-.447-.494a.225.225 0 100 .45.225.225 0 000-.45zm-.571.088a.217.217 0 100-.434.217.217 0 000 .434zm-.649-.176a.216.216 0 100-.431.216.216 0 000 .43zm-.89-.23a.216.216 0 10.432 0 .216.216 0 00-.432 0zm-.459-.213a.217.217 0 100 .434.217.217 0 000-.434zm-.37-.03a.217.217 0 10-.435 0 .217.217 0 00.435 0zm-.404-.64a.218.218 0 10.435 0 .218.218 0 00-.435 0zm.712-.616a.22.22 0 10-.44 0 .22.22 0 00.44 0zm.054-.843a.227.227 0 100 .455.227.227 0 000-.455zm.51-.388a.234.234 0 10-.47 0 .234.234 0 00.47 0zm.04-.857a.241.241 0 100 .483.241.241 0 000-.483zm.274-.623a.248.248 0 100 .497.248.248 0 000-.497zm.53-.367a.255.255 0 10-.51 0 .255.255 0 00.51 0zm.019-.878a.262.262 0 100 .524.262.262 0 000-.524zm.582-.33a.27.27 0 10-.539 0 .27.27 0 00.539 0zm.636-.047a.28.28 0 10-.56 0 .28.28 0 00.56 0zm4.79 10.343a.337.337 0 11-.648-.13.368.368 0 01-.188.056.377.377 0 01-.376-.376c0-.066.021-.125.051-.179-.008 0-.015.005-.024.005a.401.401 0 01-.401-.402c0-.08.03-.151.07-.214a.42.42 0 01-.349-.41c0-.073.024-.139.056-.199a.443.443 0 01-.333-.426c0-.067.017-.13.044-.187a.463.463 0 01-.279-.62.474.474 0 01-.265-.619.485.485 0 01-.298-.447c0-.061.014-.118.035-.172a.494.494 0 01-.298-.453c0-.06.015-.115.034-.168a.501.501 0 01-.296-.456c0-.06.015-.114.033-.167a.507.507 0 01-.293-.458c0-.063.014-.123.036-.179a.497.497 0 01-.239-.645.47.47 0 01-.27-.424c0-.083.027-.157.064-.225a.43.43 0 01-.276-.4c0-.097.038-.182.092-.254a.381.381 0 01-.302-.37c0-.114.05-.214.129-.284a.34.34 0 01.005-.682c.124 0 .228.07.288.17a.416.416 0 01.082-.134.39.39 0 01-.333-.258.3.3 0 01-.291.242.303.303 0 11.276-.427.386.386 0 01.147-.254c-.012.001-.023.007-.036.007a.368.368 0 110-.736.36.36 0 01.113.023.404.404 0 01-.067-.212c0-.114.046-.216.12-.29-.03.006-.059.017-.091.017a.393.393 0 010-.786c.088 0 .166.035.232.084l-.002-.01c0-.237.192-.429.428-.429.017 0 .03.008.047.01a.43.43 0 01-.044-.186.44.44 0 01.439-.439c.014 0 .027.007.041.009a.44.44 0 01.407-.6c.025 0 .046.01.07.014-.006-.03-.018-.058-.018-.09 0-.24.194-.433.433-.433.036 0 .068.012.101.02-.001-.014-.008-.025-.008-.04a.416.416 0 11.416.416c-.03 0-.058-.011-.087-.018.002.02.01.035.01.055a.431.431 0 01-.432.432c-.023 0-.043-.01-.065-.013.008.032.02.062.02.096a.44.44 0 01-.44.44c-.014 0-.027-.007-.041-.008.02.05.032.103.032.16 0 .035-.012.067-.02.1a.442.442 0 01.404-.264c.028 0 .052.01.079.016-.002-.013-.008-.024-.008-.037a.43.43 0 01.43-.43c.044 0 .083.013.122.024a.407.407 0 11.407.411c-.036 0-.068-.012-.101-.02l.003.015a.43.43 0 01-.43.43c-.025 0-.046-.01-.07-.013.002.015.01.03.01.046a.442.442 0 01-.442.443c-.016 0-.03-.008-.045-.01.009.035.021.068.021.105a.444.444 0 01-.249.396.446.446 0 01.144-.029c.02 0 .038.01.057.012-.001-.015-.008-.028-.008-.044 0-.245.2-.445.445-.445.037 0 .069.013.103.021a.423.423 0 01.581-.38.396.396 0 01.791.038.4.4 0 01-.4.4.384.384 0 01-.13-.027.422.422 0 01-.42.406c-.028 0-.053-.01-.08-.016v.003a.445.445 0 01-.445.446c-.017 0-.032-.008-.049-.01.002.018.01.033.01.051a.448.448 0 01-.226.385c.037-.01.073-.023.114-.023.029 0 .054.012.082.017a.436.436 0 01.435-.429c.05 0 .098.013.143.03a.41.41 0 01.405-.37c.07 0 .134.023.193.054a.386.386 0 01.38-.336.391.391 0 010 .783.385.385 0 01-.168-.04.41.41 0 01-.405.369c-.042 0-.08-.013-.117-.024a.434.434 0 01-.431.408c-.021 0-.04-.01-.06-.012 0 .003.003.006.003.01a.456.456 0 01-.251.403.426.426 0 01.133-.027c.044 0 .084.013.124.025a.42.42 0 01.416-.387.42.42 0 01.181.044.399.399 0 01.39-.335c.086 0 .16.032.226.077a.378.378 0 01.37-.313.383.383 0 010 .766.375.375 0 01-.203-.066.4.4 0 01-.551.311.42.42 0 01-.413.364c-.035 0-.066-.012-.099-.02a.443.443 0 01-.441.425c-.022 0-.04-.01-.061-.012a.467.467 0 01-.124.299.448.448 0 01.11.022.425.425 0 01.583-.33.407.407 0 01.398-.346.4.4 0 01.217.07.388.388 0 01.377-.313c.1 0 .19.04.259.102a.37.37 0 01.733.083.369.369 0 01-.613.284.389.389 0 01-.379.319.383.383 0 01-.197-.06.406.406 0 01-.397.339.406.406 0 01-.143-.03.426.426 0 01-.42.38c-.036 0-.067-.012-.1-.02a.456.456 0 01-.126.281c.06 0 .118.012.17.034a.41.41 0 01.398-.32c.075 0 .142.025.203.06a.394.394 0 01.384-.323.39.39 0 01.252.096.378.378 0 01.365-.29c.117 0 .218.055.289.138a.362.362 0 01.717.084.367.367 0 01-.367.368.362.362 0 01-.272-.126.378.378 0 01-.367.303.375.375 0 01-.235-.088.394.394 0 01-.382.314.387.387 0 01-.185-.052.41.41 0 01-.402.348.406.406 0 01-.136-.028.436.436 0 01-.176.287c.02-.003.04-.013.062-.013.077 0 .147.027.21.063a.396.396 0 01.382-.305.39.39 0 01.24.088.382.382 0 01.37-.302c.115 0 .216.053.286.132a.369.369 0 01.355-.278.37.37 0 01.317.188.354.354 0 01.344-.285.359.359 0 110 .718.354.354 0 01-.302-.177.368.368 0 01-.36.303.37.37 0 01-.271-.12.382.382 0 01-.369.294.376.376 0 01-.224-.08.396.396 0 01-.386.322.395.395 0 01-.18-.047.424.424 0 01-.412.346c-.018 0-.033-.008-.05-.01a.45.45 0 01.03.145.4.4 0 01.34-.197c.094 0 .177.037.246.09a.381.381 0 01.646-.175.37.37 0 01.356-.283.37.37 0 01.316.185.358.358 0 01.347-.283.36.36 0 01.343.26.346.346 0 01.69.04.35.35 0 01-.35.35.345.345 0 01-.328-.246.36.36 0 01-.355.323.358.358 0 01-.304-.176.37.37 0 01-.624.187.382.382 0 01-.369.298.378.378 0 01-.224-.08.401.401 0 01-.39.323c-.033 0-.064-.011-.095-.02a.416.416 0 01.029.145c0 .14-.074.259-.18.335.02-.003.036-.011.056-.011a.38.38 0 01.15.03.35.35 0 01-.023-.112c0-.212.172-.384.384-.384.112 0 .21.05.28.126a.367.367 0 01.355-.29c.134 0 .245.075.31.18a.356.356 0 01.348-.292c.167 0 .302.117.343.272a.346.346 0 01.692.03.35.35 0 01-.35.35.345.345 0 01-.33-.262.357.357 0 01-.355.331.355.355 0 01-.299-.17.367.367 0 01-.359.306.368.368 0 01-.267-.116.379.379 0 01-.368.304.381.381 0 01-.142-.03.388.388 0 01.024.12.388.388 0 01-.648.294.427.427 0 01-.073.112c.118.016.216.08.28.175a.37.37 0 01.343-.236.36.36 0 01.194.063.353.353 0 01-.022-.109c0-.2.164-.364.365-.364a.36.36 0 01.312.187.35.35 0 01.345-.305c.167 0 .3.117.338.273a.344.344 0 01.687.009.34.34 0 01-.673.082.353.353 0 01-.352.345.35.35 0 01-.302-.18.36.36 0 01-.355.318.354.354 0 01-.188-.06.364.364 0 01.022.113.365.365 0 01-.669.21.397.397 0 01-.101.163c.173 0 .312.12.356.28a.346.346 0 01.338-.287c.093 0 .176.037.238.096a.342.342 0 01-.02-.105.345.345 0 11.345.345.342.342 0 01-.233-.093c.011.034.021.07.021.108a.35.35 0 01-.35.35.346.346 0 01-.332-.251.371.371 0 01-.198.27.35.35 0 01.108-.022.356.356 0 010 .712.347.347 0 01-.197-.067.435.435 0 01-.051.137.415.415 0 01.206.147.33.33 0 01.65.096.335.335 0 01-.573.235.414.414 0 01-.068.162c.127.03.233.11.283.228a.31.31 0 01.304-.27.313.313 0 010 .627.312.312 0 01-.278-.175.389.389 0 01-.056.175l.01-.002a.372.372 0 01.338.536.328.328 0 01.16-.046c.186 0 .337.151.337.338zM18.5 11.85c.03-.007.06-.02.092-.02.015 0 .027.008.04.01a.442.442 0 01-.02-.105.417.417 0 01-.112.115zm1.619 5.223zm.538 3.689a.37.37 0 01-.115.023.368.368 0 01-.16-.038.461.461 0 01-.035.115c.052.02.098.05.139.086a.354.354 0 01.171-.186zm-.38-.622l-.01.001a.399.399 0 01-.128-.026c-.007.037-.01.074-.026.108.03.012.052.034.078.05a.377.377 0 01.085-.133zm.14-1.51c-.022.003-.042.012-.066.012a.407.407 0 01-.207-.062c-.012.029-.034.051-.052.077a.424.424 0 01.208.107.388.388 0 01.117-.135zm-.677-4.81c-.014 0-.025-.007-.039-.008l.002.01a.465.465 0 01-.121.308c.022.001.042.008.063.013a.438.438 0 01.233-.351.453.453 0 01-.138.028zm-.343-.827c-.014 0-.026-.006-.04-.008.003.021.012.04.012.062 0 .028-.011.053-.016.08a.452.452 0 01.156-.156c-.036.01-.072.022-.112.022zm-.201-.858a.436.436 0 01-.14.029c-.017 0-.03-.008-.046-.01.011.04.024.077.024.119l-.001.007a.444.444 0 01.163-.145zm-.493-.796c-.02 0-.035-.009-.054-.011a.425.425 0 01.036.153.44.44 0 01.37-.212c.017 0 .032.008.048.01-.008-.033-.02-.065-.02-.1 0-.037.012-.07.02-.103a.439.439 0 01-.4.263zm3.5 12.254a.298.298 0 100 .596.298.298 0 000-.596z"/></svg>