<svg width="100" height="100" xmlns="http://www.w3.org/2000/svg"><path d="M63.05 43.59h-6.01c-.17 0-.22-.23-.08-.3.5-.26 1.31-.74 2.56-1.62 2.51-1.75 4.26-5.09 5.7-8.07 2.48-5.13 7.38-15.76 8.16-17.44a.162.162 0 0 0-.15-.23H58.41c-.06 0-.12.04-.15.1L45.99 43.5c-.03.06-.08.1-.15.1H28.8c-.09 0-.16-.07-.16-.16V16.1c0-.09-.07-.16-.16-.16H15.15c-.09 0-.16.07-.16.16v71.1c0 .09.07.16.16.16h13.33c.09 0 .16-.07.16-.16V57.41c0-.09.07-.16.16-.16h22.03c1.49-.01 3-.14 4.45-.44 3.18-.65 6.14-2.33 7.57-6.33.07-.19.35-.14.35.06v36.65c0 .09.07.16.16.16h13.33c.09 0 .16-.07.16-.16V57.4c0-7.63-6.18-13.81-13.81-13.81Z" style="stroke-width:0;fill:#000"/><path d="M79.75 29.78c.47-.6 1.6-1.56 1.64-2.36.05-.87-.97-1.86-1.3-2.67-.86-2.12-.96-4.67-.32-6.86 1.43-4.89 7.07-6.45 11.38-4.29 3.82 1.91 4.5 6.92 3.3 10.67-.74 2.3-2.43 3.72-4.43 4.54-1.08.44-10.03.99-10.28.97Z" style="fill:#0179fb;stroke-width:0"/></svg>