<svg width="16" height="16" xmlns="http://www.w3.org/2000/svg"><g fill-rule="nonzero" fill="none"><rect fill="#00965E" width="16" height="16" rx="3.571"/><path d="M5.637 6.109a4.214 4.214 0 0 1 2.16.542v.126L7.27 7.92a2.411 2.411 0 0 0-1.386-.44c-.663 0-.8.331-.8.609 0 .451.426.611.966.814l.368.143c1 .417 1.543.857 1.543 2 0 1.837-1.623 2.097-2.591 2.097a3.937 3.937 0 0 1-2.418-.766v-.128L3.5 11.15c.432.401.985.646 1.571.698.432 0 .895-.178.895-.678 0-.44-.395-.602-.892-.808a7.864 7.864 0 0 1-.588-.26c-.823-.409-1.372-.894-1.372-1.937 0-1.857 1.766-2.057 2.523-2.057Zm5.9-3.278a3.631 3.631 0 0 1 1.512.286v.157l-.398 1.183a1.271 1.271 0 0 0-.571-.16c-.437 0-.626.309-.626 1.034v.892c0 .022.008.044.023.06l.028.017.032.006h1.1l-.023 1.451h-.25c-.202 0-.459-.003-.674-.009l-.153-.005a.091.091 0 0 0-.06.023.08.08 0 0 0-.023.06c.009.467.016 1.221.022 2.013l.006.794c.007 1.051.01 2.02.012 2.313l-2.037.011V12.14l.001-.414.003-1.205.002-.51c.004-.851.011-1.678.023-2.173a.094.094 0 0 0-.026-.06l-.028-.017-.032-.006c-.286 0-.543.015-.694.015l.023-1.452H9.4a.091.091 0 0 0 .06-.023.089.089 0 0 0 .026-.06l-.029-1.177c0-1.84 1.143-2.226 2.08-2.226Z" fill="#FFF"/></g></svg>