<svg width="30" height="30" viewBox="0 0 24 29" xmlns="http://www.w3.org/2000/svg"><g fill-rule="nonzero" fill="none"><path d="M23.562 19.832a11.867 11.867 0 0 1-1.94 3.85l-.004.005c-1.292 1.604-5.722 1.615-8.364.9-2.87-.774-4.943-2.585-5.092-2.718a6.68 6.68 0 0 0 4.109 1.407c3.726 0 6.746-3.047 6.746-6.806a6.828 6.828 0 0 0-.74-3.103.064.064 0 0 1 .066-.093c2.085.333 6.287 2.314 5.219 6.558Z" fill="#1652D8"/><path d="M23.961 15.093a.064.064 0 0 1-.121.034c-.991-2.133-2.732-2.765-4.823-3.235-1.59-.357-2.63-.876-3.09-1.14a6.75 6.75 0 0 0-.298-.184c-3.307-2.012-3.357-5.483-3.357-5.483V.063a.064.064 0 0 1 .109-.045l7.804 7.666.58.569a11.874 11.874 0 0 1 3.196 6.84Z" fill="#EA0100"/><path d="M21.618 23.688c-2.15 2.831-5.539 4.657-9.348 4.657C5.77 28.345.5 23.032.5 16.472a11.885 11.885 0 0 1 3.27-8.211l.593-.583 5.102-5.013a.063.063 0 0 1 .107.059c-.084.36-.218 1.145-.13 2.22.102 1.27.514 2.948 1.684 4.817.734 1.175 1.767 2.426 3.21 3.7.174.152.352.305.537.458a3.662 3.662 0 0 1 1.025 2.55c0 2.022-1.624 3.66-3.628 3.66a3.592 3.592 0 0 1-2.256-.793.064.064 0 0 1 .06-.11c.126.041.259.062.392.062a1.29 1.29 0 0 0 .732-2.342 18.998 18.998 0 0 1-2.207-2.044c-.86-.942-1.491-1.86-1.95-2.731a6.845 6.845 0 0 0 1.112 9.69l.009.008c.148.133 2.222 1.944 5.091 2.719 2.643.715 7.073.704 8.365-.9Z" fill="#3DC8F9"/></g></svg>